<?xml version="1.0" encoding="UTF-8" standalone="no"?>
<svg
   version="1.1"
   id="svg1"
   width="1000"
   height="1000"
   viewBox="0 0 1000 1000"
   xmlns="http://www.w3.org/2000/svg"
   xmlns:svg="http://www.w3.org/2000/svg">
  <defs>
    <linearGradient id="gradient-purple-orange" x1="0%" y1="0%" x2="100%" y2="100%">
      <stop offset="0%" style="stop-color:#a100ff; stop-opacity:1" />
      <stop offset="100%" style="stop-color:#ff6a00; stop-opacity:1" />
    </linearGradient>
  </defs>
  <g id="g1">
    <path
       d="m 555.13221,725.48581 -7.87266,-4.30362 -0.86203,-1.36056 -0.86203,-1.36056 -0.12932,-89.5 -0.12932,-89.5 -0.636,-12.61739 -0.63599,-12.6174 -12,6.74315 -12,6.74314 -28.5,16.61085 -28.5,16.61084 -1,0.34633 -1,0.34633 -0.5,53.4038 -0.5,53.4038 -1.61051,0.30973 -1.61051,0.30974 -12.38949,-7.39556 -12.38949,-7.39555 -29.5,-17.03111 -29.5,-17.03111 -12,-6.72828 -12,-6.72827 -1.25,-1.58265 -1.25,-1.58265 v -11.23209 -11.2321 l 18.75,-10.87392 18.75,-10.87393 18.10711,-10.37601 18.1071,-10.376 0.73617,-88.74911 0.73616,-88.74911 -0.73589,-44.59986 -0.73589,-44.59985 -2.08792,0.66268 -2.08792,0.66268 -14.26946,7.94885 -14.26946,7.94885 -0.0242,96.16059 -0.0242,96.16059 -0.54372,18.5 -0.54373,18.5 -0.3406,1.09346 -0.3406,1.09346 -17.11086,9.65654 -17.1109,9.65654 h -0.87361 -0.8736 l -0.74275,-1.75 -0.74275,-1.75 -0.4919,-135.091 -0.49191,-135.091 2.87767,-1.99878 2.87766,-1.99877 31.5,-18.01189 31.5,-18.01189 11.0933,-6.14833 11.0933,-6.14834 h 2.70381 2.7038 l 7.36579,4.04258 7.36579,4.04258 1.20707,1.45444 1.20708,1.45443 0.52892,102.38209 0.52892,102.38208 18.60111,-10.75035 18.60111,-10.75036 23,-13.19277 23,-13.19277 0.5,-53.17251 0.5,-53.17251 1.80625,-0.34762 1.80625,-0.34763 22.69375,12.98379 22.69375,12.98379 31.24166,17.971 31.24166,17.971 1.50834,1.25182 1.50834,1.25181 -0.0153,10.62755 -0.0153,10.62756 -0.73468,1.10476 -0.73469,1.10476 -33,18.81476 -33,18.81475 -3.75,2.46337 -3.75,2.46337 0.011,129.61712 0.011,129.61711 0.61355,3.71127 0.61355,3.71127 3.12545,-1.57337 3.12544,-1.57336 11.5,-6.5491 11.5,-6.5491 1.25,-1.52993 1.25,-1.52994 0.0576,-111.05887 0.0576,-111.05887 0.69237,-3.74236 0.69237,-3.74237 18.38479,-10.5629 18.38478,-10.5629 1.36876,0.52524 1.36877,0.52524 -0.25355,137.22624 -0.25355,137.22625 -9.5,5.42409 -9.5,5.42409 -36.07165,20.87969 -36.0716,20.87969 -2.42836,-0.0858 -2.42835,-0.0858 z m 33.94593,-10.69868 22.92672,-13.17393 18,-10.2641 18,-10.2641 4.26002,-2.81196 4.26001,-2.81197 0.54527,-134.65681 0.54528,-134.65682 -0.80529,-0.46925 -0.80529,-0.46925 -17,9.66589 -17,9.6659 -1,115.17605 -1,115.17605 -1.5,1.42431 -1.5,1.42431 -15.20909,8.7325 -15.2091,8.73249 -1.5409,-0.5913 -1.54091,-0.5913 V 539.04335 404.06285 l 3.25,-2.42351 3.25,-2.42352 33,-18.73524 33,-18.73525 1.25,-1.58326 1.25,-1.58326 -0.0153,-8.55887 -0.0153,-8.55887 -0.73468,-1.0731 -0.73472,-1.07311 -13.5,-7.82416 -13.5,-7.82416 -12.75,-7.35273 -12.75,-7.35274 -12.75,-7.39887 -12.75,-7.39888 -14.96749,-8.5503 -14.9675,-8.5503 -0.5325,0.53176 -0.53251,0.53176 -0.5,52.6647 -0.5,52.66469 -15,8.56508 -15,8.56507 -27.27813,15.68765 -27.27814,15.68764 h -1.47186 -1.47187 l -0.14234,-48.25 -0.14234,-48.25 -0.60766,-55.39818 -0.60766,-55.39818 -7.87284,-4.35182 -7.87283,-4.35182 h -1.23327 -1.23327 l -14.39389,7.89217 -14.3939,7.89218 -30.5,17.5307 -30.5,17.53071 0.24778,134.2749 0.24778,134.2749 0.8097,0.8097 0.80969,0.80969 14.94253,-8.46811 14.94252,-8.46812 1.25,-1.07879 1.25,-1.07878 0.0181,-45.71058 0.0181,-45.71057 0.58103,-69 0.58103,-69 1.15085,-1.20545 1.15084,-1.20544 14.5,-8.07573 14.5,-8.07574 2.29657,-0.58891 2.29657,-0.58892 0.70343,0.70328 0.70343,0.70329 0.26419,133.70628 0.26418,133.70628 -1.26418,1.67447 -1.26419,1.67448 -9,5.17062 -9,5.17061 -23,13.18861 -23,13.1886 -4.25,2.68938 -4.25,2.68938 0.0136,8.73745 0.0137,8.73746 0.5501,2 0.55011,2 9.68624,5.40547 9.68624,5.40546 33,18.97636 33,18.97637 10.82467,6.4935 10.82466,6.49351 0.91622,-0.91623 0.91623,-0.91622 0.25911,-51.91414 0.25911,-51.91415 7.5,-4.45288 7.5,-4.45288 9,-5.17283 9,-5.17283 10,-5.85108 10,-5.85108 15.4878,-8.81818 15.48786,-8.81817 h 1.62291 1.62291 l 0.6306,5.25 0.6306,5.25 0.009,95.625 0.009,95.625 0.61056,2.875 0.61057,2.875 8.13943,4.21163 8.13944,4.21163 0.57328,0.0384 0.57327,0.0384 z m -176.82328,-115.96422 -6.75,-4.09829 v -1.79533 -1.79533 l 7.16118,-4.12873 7.16119,-4.12873 1.58881,0.30598 1.58882,0.30598 v 9.4863 9.48631 l -2,0.23007 -2,0.23007 z m 9.15032,-8.20304 0.0997,-5.84119 -6.25,3.51047 -6.25,3.51048 v 1.172 1.172 l 5.5,3.24507 5.5,3.24507 0.65032,-2.08635 0.65032,-2.08635 z m 37.54593,-74.93827 -0.49098,-1.27948 0.27236,-19.38551 0.27237,-19.38551 3,-1.72671 3,-1.72671 24,-13.94344 24,-13.94345 12,-7.02418 12,-7.02418 4.21016,-2.14068 4.21016,-2.14068 h 1.05973 1.05972 l -0.26988,21.197 -0.26989,21.197 -9.5,5.39883 -9.5,5.39883 -9,5.09298 -9,5.09297 -15.94517,9.41159 -15.94518,9.41158 -8.13702,4.39961 -8.13702,4.39961 h -1.19919 -1.19919 z m 23.05375,-12.74153 19,-10.97795 22.25,-12.73346 22.25,-12.73345 v -18.87406 -18.87406 l -1.58729,0.6091 -1.58728,0.6091 -32.16272,18.64926 -32.16271,18.64925 -8.5,5.1267 -8.5,5.12669 -0.225,8.97194 -0.225,8.97194 0.56832,9.25 0.56833,9.25 0.65667,-0.0215 0.65668,-0.0215 z m 101.5,-152.91998 v -9.94099 l 0.97636,-0.60342 0.97637,-0.60343 7.27363,4.79441 7.27364,4.79441 v 1.86127 1.86127 l -6.43127,3.88873 -6.43128,3.88873 h -1.81872 -1.81873 z m 13.27183,1.39838 1.77183,-1.17628 -1.27183,-1.03527 -1.27183,-1.03526 -5.25,-3.07935 -5.25,-3.07935 v 8.01621 8.01621 l 4.75,-2.72532 4.75,-2.72532 z"
       id="path1"
       fill="none"
       stroke="url(#gradient-purple-orange)"
       stroke-width="2"
       stroke-linecap="round"
       stroke-linejoin="round" />
  </g>
</svg>
